# xmcd
#
# Track frame offsets: 
#        205
#        18962
#        37802
#        56702
#        78185
#        106520
#        122670
#        136027
#        157077
#        175737
#        190890
#
# Disc length: 2810 seconds
#
# Revision: 0
# Processed by: cddbd v1.5.1PL0 Copyright (c) Steve Scherf et al.
# Submitted via: ExactAudioCopy v0.95b1
#
DISCID=7b0af80b
DTITLE=James Peterson - To Many Knots
DYEAR=1991
DGENRE=Blues
TTITLE0=Fish Ain`t Bitin`
TTITLE1=Flip Floppin` My Love
TTITLE2=Call Before You Come Home
TTITLE3=Long Handled Spoon
TTITLE4=Slob On The Knob
TTITLE5=Too Many Knots
TTITLE6=Jacksonville
TTITLE7=Every Goodbye Ain`t Gone
TTITLE8=More Than One Way To Skin A Cat
TTITLE9=Blind Can`t Lead The Blind
TTITLE10=Killer Rock
EXTD=
EXTT0=
EXTT1=
EXTT2=
EXTT3=
EXTT4=
EXTT5=
EXTT6=
EXTT7=
EXTT8=
EXTT9=
EXTT10=
PLAYORDER=
